<svg width="70" height="70" viewBox="0 0 70 70" fill="none" xmlns="http://www.w3.org/2000/svg">
<g clip-path="url(#clip0)">
<path d="M67.3163 54.3385L48.8468 35.7337L50.8966 25.6373C51.4256 25.8438 51.9879 25.9517 52.5556 25.9558H52.5696C55.1777 25.9866 57.3169 23.8974 57.3479 21.2893C57.3788 18.6812 55.2894 16.542 52.6813 16.5111C50.0732 16.4803 47.934 18.5695 47.9031 21.1776C47.8965 21.7357 47.9888 22.2905 48.176 22.8163L37.326 24.1405L19.6276 6.35C19.4105 6.12848 19.1141 6.00248 18.804 6C18.4977 6.0016 18.2044 6.12352 17.9873 6.3395L14.6786 9.6295C14.2232 10.0851 14.2232 10.8236 14.6786 11.2792L16.459 13.0852C9.56162 25.7681 11.8019 41.4741 21.9703 51.7228C22.0636 51.8121 22.1718 51.8843 22.29 51.9363C22.2165 52.3311 22.1781 52.7317 22.1756 53.1333V66.6667H8.17562C4.95562 66.6705 2.34608 69.28 2.34229 72.5V74.8333C2.34229 75.4776 2.86466 76 3.50895 76H57.1756C57.8199 76 58.3423 75.4776 58.3423 74.8333V72.5C58.3385 69.28 55.729 66.6705 52.509 66.6667H38.509V60.6688C40.7021 61.1288 42.9367 61.3633 45.1776 61.3688C50.5548 61.363 55.8464 60.0225 60.5776 57.4675L62.3673 59.2677C62.5844 59.4892 62.8808 59.6152 63.191 59.6177C63.4972 59.6161 63.7905 59.4941 64.0076 59.2782L67.3163 55.9882C67.7717 55.5326 67.7717 54.7941 67.3163 54.3385ZM50.9246 19.6348C51.8383 18.726 53.3157 18.7301 54.2244 19.6437C55.1332 20.5574 55.1291 22.0348 54.2155 22.9435C53.7781 23.3785 53.1864 23.6226 52.5695 23.6225H52.5625C51.2739 23.6158 50.2345 22.5658 50.2412 21.2771C50.2445 20.6602 50.4918 20.0699 50.9291 19.6348H50.9246ZM48.1783 27.301L46.8693 33.7445L44.298 31.158L48.1783 27.301ZM46.853 25.3282L42.653 29.5037L39.4038 26.237L46.853 25.3282ZM52.509 69C54.442 69 56.009 70.567 56.009 72.5V73.6667H4.67562V72.5C4.67562 70.567 6.2426 69 8.17562 69H52.509ZM36.1756 64.3333V66.6667H24.509V64.3333H36.1756ZM24.509 62V53.1333C24.509 50.303 27.1258 48 30.3423 48C33.5588 48 36.1756 50.303 36.1756 53.1333V62H24.509ZM38.509 58.29V53.1333C38.509 49.0162 34.8456 45.6667 30.3423 45.6667C27.4306 45.622 24.7079 47.1041 23.165 49.5738C14.2887 40.2249 12.2899 26.2875 18.1805 14.8207L58.872 55.7455C52.5886 58.9419 45.3857 59.8418 38.509 58.29ZM63.2038 56.7943L61.56 55.1412L18.7923 12.1157L17.1415 10.4613L18.7923 8.81633L36.15 26.272C36.1581 26.272 36.1628 26.2872 36.171 26.293L64.8593 55.1493L63.2038 56.7943Z" fill="#212121"/>
<path d="M30.3528 50.3333H30.3423C28.4093 50.3304 26.84 51.895 26.837 53.8281C26.8341 55.7611 28.3988 57.3304 30.3318 57.3333H30.3423C32.2753 57.3362 33.8446 55.7716 33.8475 53.8386C33.8505 51.9055 32.2858 50.3362 30.3528 50.3333ZM31.1695 54.6605C30.9498 54.8789 30.6522 55.0012 30.3423 55C29.698 54.9966 29.1784 54.4716 29.1817 53.8273C29.1834 53.5189 29.307 53.2237 29.5256 53.0062C29.7428 52.7902 30.036 52.6683 30.3423 52.6667C30.9866 52.67 31.5062 53.195 31.5028 53.8393C31.5012 54.1477 31.3776 54.4429 31.159 54.6605H31.1695Z" fill="#2196F3"/>
</g>
<defs>
<clipPath id="clip0">
<rect width="70" height="70" fill="white"/>
</clipPath>
</defs>
</svg>
